<?xml version="1.0" encoding="utf-8"?>
<!-- Generator: Adobe Illustrator 23.0.1, SVG Export Plug-In . SVG Version: 6.00 Build 0)  -->
<svg version="1.1" id="圖層_1" xmlns="http://www.w3.org/2000/svg" xmlns:xlink="http://www.w3.org/1999/xlink" x="0px" y="0px"
	 viewBox="0 0 30 30" style="enable-background:new 0 0 30 30;" xml:space="preserve">
<style type="text/css">
	.st0{fill:#231815;}
</style>
<path class="st0" d="M29.13,25.1l-9.74-9.74l9.74-9.74c0.54-0.54,0.54-1.42,0-1.96L27.17,1.7c-0.54-0.54-1.42-0.54-1.96,0
	l-9.74,9.74L5.73,1.7c-0.54-0.54-1.42-0.54-1.96,0L1.82,3.65c-0.54,0.54-0.54,1.42,0,1.96l9.74,9.74L1.82,25.1
	c-0.54,0.54-0.54,1.42,0,1.96l1.96,1.96c0.54,0.54,1.42,0.54,1.96,0l9.74-9.74l9.74,9.74c0.54,0.54,1.42,0.54,1.96,0l1.96-1.96
	C29.67,26.51,29.67,25.64,29.13,25.1z"/>
</svg>
