<?xml version="1.0" encoding="utf-8"?>
<!-- Generator: Adobe Illustrator 23.0.1, SVG Export Plug-In . SVG Version: 6.00 Build 0)  -->
<svg version="1.1" id="圖層_1" xmlns="http://www.w3.org/2000/svg" xmlns:xlink="http://www.w3.org/1999/xlink" x="0px" y="0px"
	 viewBox="0 0 30 30" style="enable-background:new 0 0 30 30;" xml:space="preserve">
<style type="text/css">
	.st0{fill:#231815;}
</style>
<g>
	<path class="st0" d="M27.78,7.23H2.22c-0.5,0-0.9-0.4-0.9-0.9v-3c0-0.5,0.4-0.9,0.9-0.9h25.55c0.5,0,0.9,0.4,0.9,0.9v3
		C28.68,6.83,28.27,7.23,27.78,7.23z"/>
	<path class="st0" d="M27.78,17.4H2.22c-0.5,0-0.9-0.4-0.9-0.9v-3c0-0.5,0.4-0.9,0.9-0.9h25.55c0.5,0,0.9,0.4,0.9,0.9v3
		C28.68,17,28.27,17.4,27.78,17.4z"/>
	<path class="st0" d="M27.78,27.57H2.22c-0.5,0-0.9-0.4-0.9-0.9v-3c0-0.5,0.4-0.9,0.9-0.9h25.55c0.5,0,0.9,0.4,0.9,0.9v3
		C28.68,27.16,28.27,27.57,27.78,27.57z"/>
</g>
</svg>
