<?xml version="1.0" encoding="utf-8"?>
<!-- Generator: Adobe Illustrator 16.0.0, SVG Export Plug-In . SVG Version: 6.00 Build 0)  -->
<!DOCTYPE svg PUBLIC "-//W3C//DTD SVG 1.1//EN" "http://www.w3.org/Graphics/SVG/1.1/DTD/svg11.dtd">
<svg version="1.1" id="圖層_1" xmlns="http://www.w3.org/2000/svg" xmlns:xlink="http://www.w3.org/1999/xlink" x="0px" y="0px"
	 width="600px" height="220px" viewBox="0 190 600 220" enable-background="new 0 190 600 220" xml:space="preserve">
<path fill="#3A2C25" d="M-638.1-202.3c0,7.2-1.2,13-3.5,17.3c-2.4,4.3-6,8.1-11,11.3l16.8,47.6h-40l-11.2-38.7h-2.9v38.7H-727
	v-112.4h48c14,0,24.3,2.9,30.9,8.8C-641.4-223.8-638.1-214.7-638.1-202.3z M-680.1-189.4c1.1-1.6,1.7-4.5,1.7-8.6s-0.6-6.9-1.8-8.5
	c-1.2-1.6-3.1-2.4-5.6-2.4h-4.7v21.9h4.5C-683.2-186.9-681.3-187.7-680.1-189.4z"/>
<path fill="#3A2C25" d="M-553.4-126.1H-625v-112.4h74.2l-2.5,29.9h-32.9v13.6h28.8v26.1h-28.8v15.4h35.5L-553.4-126.1z"/>
<path fill="#3A2C25" d="M-547.1-202.5c0-11.9,3.6-21.2,10.9-27.9c7.3-6.7,17.3-10,30.1-10c12.9,0,26.1,1.2,39.7,3.6l-4.2,31.8
	c-15.1-3-25-4.5-29.7-4.5c-4.7,0-7.1,1.4-7.1,4.3c0,1.1,0.4,1.8,1.1,2.3c0.7,0.4,1.3,0.8,1.6,1c0.4,0.2,1.1,0.5,2.1,0.9
	s1.9,0.7,2.5,1s2.8,1.2,6.5,2.7c3.7,1.5,6.4,2.7,8.3,3.6c1.9,0.9,4.4,2.4,7.7,4.4c9.4,6.2,14.1,15.2,14.1,27.1
	c0,11.9-3.6,21.2-10.7,27.8c-7.1,6.6-17.4,9.8-30.6,9.8c-13.3,0-26.4-1.6-39.1-4.9l2.5-30.6c16.2,4.1,27.1,6.2,32.8,6.2
	c3.7,0,5.6-1.3,5.6-4c0-1.2-0.4-2.2-1.3-2.9c-0.9-0.7-2.2-1.5-4-2.4c-1.7-0.8-4.3-2-7.7-3.4s-6.2-2.6-8.5-3.6s-5-2.6-8.1-4.8
	C-542.3-181.2-547.1-190.5-547.1-202.5z"/>
<path fill="#3A2C25" d="M-414.5-165.9c0,6.5,2.9,9.8,8.8,9.8c5.8,0,8.8-3.3,8.8-10v-72.4h38.7v74.7c0,13.3-4.2,23.2-12.5,29.7
	c-8.3,6.5-20.3,9.8-35.8,9.8c-31.6,0-47.4-13-47.4-39.1v-75.1h39.5C-414.5-238.5-414.5-165.9-414.5-165.9z"/>
<path fill="#3A2C25" d="M-221.1-126.1h-34.2v-53.6h-0.9l-10.7,53.6h-31.7l-10.5-53.6h-0.9v53.6h-33.8l4.4-112.3h48.1l8.5,50.9h1.6
	l8.3-50.9h47.6L-221.1-126.1z"/>
<path fill="#3A2C25" d="M-135.3-126.1H-207v-112.4h74.2l-2.5,29.9h-32.9v13.6h28.8v26.1h-28.8v15.4h35.5L-135.3-126.1z"/>
<path fill="#E80F29" d="M-302.2-46.5h-254.3c-7.1,0-12.8-5.7-12.8-12.8v-34.5c0-7.1,5.7-12.8,12.8-12.8h254.3
	c7.1,0,12.8,5.7,12.8,12.8v34.5C-289.4-52.2-295.2-46.5-302.2-46.5z"/>
<g enable-background="new    ">
	<path fill="#FFFFFF" d="M-525.7-60.1v-33.2h4.4v33.2H-525.7L-525.7-60.1z"/>
	<path fill="#FFFFFF" d="M-514.3-88.9v-4.7h4.4v3.7c0,2-0.2,3.5-0.7,4.4c-0.6,1.2-1.7,2.1-3,2.8l-1-1.6c0.8-0.3,1.4-0.9,1.8-1.6
		c0.4-0.7,0.6-1.7,0.7-3H-514.3L-514.3-88.9z"/>
	<path fill="#FFFFFF" d="M-503.8-60.1v-24h3.6v3.4c0.8-1.2,1.8-2.1,3-2.8c1.3-0.7,2.7-1.1,4.3-1.1c1.8,0,3.2,0.4,4.4,1.1
		c1.1,0.7,1.9,1.8,2.4,3.1c1.9-2.8,4.4-4.2,7.4-4.2c2.4,0,4.2,0.7,5.5,2c1.3,1.3,1.9,3.4,1.9,6.1V-60h-4v-15.1
		c0-1.6-0.1-2.8-0.4-3.5c-0.3-0.7-0.7-1.3-1.4-1.7c-0.7-0.4-1.5-0.7-2.4-0.7c-1.7,0-3.1,0.6-4.2,1.7c-1.1,1.1-1.7,2.9-1.7,5.4v14
		h-4.1v-15.6c0-1.8-0.3-3.2-1-4.1s-1.8-1.4-3.3-1.4c-1.1,0-2.2,0.3-3.2,0.9s-1.7,1.5-2.1,2.6c-0.4,1.2-0.7,2.8-0.7,5V-60
		L-503.8-60.1L-503.8-60.1z"/>
	<path fill="#FFFFFF" d="M-452.3-60.1v-24h3.7v3.6c0.9-1.7,1.8-2.8,2.6-3.4c0.8-0.5,1.7-0.8,2.6-0.8c1.4,0,2.8,0.4,4.2,1.3l-1.4,3.8
		c-1-0.6-2-0.9-3-0.9c-0.9,0-1.7,0.3-2.4,0.8s-1.2,1.3-1.5,2.2c-0.5,1.4-0.7,3-0.7,4.8v12.6H-452.3L-452.3-60.1z"/>
	<path fill="#FFFFFF" d="M-420.4-67.9l4.2,0.5c-0.7,2.5-1.9,4.4-3.7,5.7c-1.8,1.3-4.1,2-6.9,2c-3.5,0-6.3-1.1-8.4-3.2
		c-2.1-2.2-3.1-5.2-3.1-9.1c0-4,1-7.2,3.1-9.4c2.1-2.2,4.8-3.3,8.1-3.3c3.2,0,5.8,1.1,7.9,3.3c2,2.2,3.1,5.3,3.1,9.2
		c0,0.2,0,0.6,0,1.1H-434c0.1,2.6,0.9,4.7,2.2,6.1c1.3,1.4,3,2.1,5,2.1c1.5,0,2.8-0.4,3.8-1.2C-422-64.9-421-66.2-420.4-67.9z
		 M-433.8-74.5h13.4c-0.2-2-0.7-3.5-1.5-4.5c-1.3-1.6-3-2.4-5-2.4c-1.9,0-3.4,0.6-4.7,1.9C-432.9-78.2-433.7-76.5-433.8-74.5z"/>
	<path fill="#FFFFFF" d="M-395.4-63.1c-1.5,1.3-3,2.2-4.4,2.7c-1.4,0.5-2.9,0.8-4.5,0.8c-2.6,0-4.7-0.6-6.1-1.9s-2.1-2.9-2.1-4.9
		c0-1.2,0.3-2.3,0.8-3.2c0.5-1,1.2-1.8,2.1-2.3c0.9-0.6,1.8-1,2.9-1.3c0.8-0.2,2-0.4,3.6-0.6c3.3-0.4,5.7-0.9,7.3-1.4
		c0-0.6,0-0.9,0-1.1c0-1.7-0.4-2.8-1.2-3.5c-1-0.9-2.6-1.4-4.6-1.4c-1.9,0-3.3,0.3-4.2,1c-0.9,0.7-1.6,1.9-2,3.6l-4-0.5
		c0.4-1.7,1-3.1,1.8-4.1s2-1.9,3.6-2.4s3.4-0.8,5.5-0.8s3.7,0.2,5,0.7c1.3,0.5,2.2,1.1,2.8,1.8c0.6,0.7,1,1.7,1.3,2.8
		c0.1,0.7,0.2,1.9,0.2,3.8v5.4c0,3.8,0.1,6.2,0.3,7.2c0.2,1,0.5,2,1,2.9h-4.3C-395-61-395.3-62-395.4-63.1z M-395.8-72.2
		c-1.5,0.6-3.7,1.1-6.7,1.5c-1.7,0.2-2.9,0.5-3.6,0.8c-0.7,0.3-1.2,0.7-1.6,1.3c-0.4,0.6-0.6,1.2-0.6,1.9c0,1.1,0.4,2,1.2,2.7
		c0.8,0.7,2,1.1,3.6,1.1s3-0.3,4.2-1c1.2-0.7,2.1-1.6,2.7-2.8c0.4-0.9,0.7-2.3,0.7-4.1v-1.4H-395.8z"/>
	<path fill="#FFFFFF" d="M-369.7-60.1v-3c-1.5,2.4-3.8,3.6-6.7,3.6c-1.9,0-3.7-0.5-5.3-1.6c-1.6-1.1-2.9-2.5-3.7-4.4
		c-0.9-1.9-1.3-4.1-1.3-6.5s0.4-4.6,1.2-6.5c0.8-2,2-3.5,3.6-4.5s3.4-1.6,5.4-1.6c1.4,0,2.7,0.3,3.9,0.9c1.1,0.6,2.1,1.4,2.8,2.4
		v-11.9h4V-60L-369.7-60.1L-369.7-60.1z M-382.6-72.1c0,3.1,0.6,5.4,1.9,6.9c1.3,1.5,2.8,2.3,4.6,2.3c1.8,0,3.3-0.7,4.5-2.2
		c1.2-1.5,1.9-3.7,1.9-6.7c0-3.3-0.6-5.7-1.9-7.2c-1.3-1.5-2.8-2.3-4.7-2.3c-1.8,0-3.3,0.7-4.5,2.2C-382-77.6-382.6-75.3-382.6-72.1
		z"/>
	<path fill="#FFFFFF" d="M-359.7-50.9l-0.5-3.8c0.9,0.2,1.7,0.4,2.3,0.4c0.9,0,1.6-0.2,2.2-0.5c0.6-0.3,1-0.7,1.3-1.3
		c0.3-0.4,0.7-1.4,1.2-3c0.1-0.2,0.2-0.6,0.4-1l-9.1-24.1h4.4l5,13.9c0.6,1.8,1.2,3.6,1.7,5.6c0.5-1.9,1-3.7,1.7-5.5l5.1-14h4.1
		l-9.1,24.4c-1,2.6-1.7,4.5-2.3,5.5c-0.7,1.3-1.6,2.3-2.5,3c-0.9,0.6-2.1,0.9-3.3,0.9C-357.9-50.4-358.8-50.5-359.7-50.9z"/>
	<path fill="#FFFFFF" d="M-334.2-68.4l-1.2-17.6v-7.4h5v7.4l-1.2,17.6H-334.2z M-335.3-60.1v-4.6h4.7v4.6H-335.3z"/>
</g>
<path d="M13.549,495.316c2.6,5.2,3.9,11.1,3.9,17.5s-1.3,12.2-3.9,17.4c-2.6,5.199-5.9,9.3-9.9,12.4c-8.2,6.299-16.7,9.5-25.5,9.5
	h-18.6v16.8c0,2.3-0.1,4-0.2,5.1c-0.1,1.1-0.6,2.4-1.4,3.9c-1.4,2.699-5.2,4-11.6,4c-6.9,0-11-1.801-12.2-5.5
	c-0.6-1.7-0.9-4.301-0.9-7.7v-82.301c0-2.299,0.1-4,0.2-5.1c0.1-1.1,0.6-2.4,1.4-3.9c1.4-2.699,5.2-4,11.6-4h31.8
	c8.7,0,17.2,3.201,25.4,9.5C7.649,485.916,10.949,490.117,13.549,495.316z M-13.051,522.617c2.9-2.201,4.3-5.4,4.3-9.801
	s-1.4-7.6-4.3-9.9c-2.9-2.199-5.8-3.299-8.9-3.299h-18.5v26.299h18.7C-18.75,525.916-15.851,524.816-13.051,522.617z"/>
<path d="M110.35,563.717c1.5,3.6,2.2,6.1,2.2,7.7c0,3.8-3.1,6.899-9.2,9.5c-3.2,1.399-5.7,2.1-7.6,2.1s-3.5-0.5-4.7-1.4
	c-1.2-0.899-2.2-1.899-2.7-2.899c-1-1.9-4.8-10.8-11.6-26.9l-4.6,0.301h-18.7v16.8c0,2.3-0.1,4-0.2,5.1s-0.6,2.4-1.4,3.9
	c-1.4,2.699-5.2,4-11.6,4c-6.9,0-11-1.801-12.2-5.5c-0.6-1.7-0.9-4.301-0.9-7.7v-82.301c0-2.299,0.1-4,0.2-5.1
	c0.1-1.1,0.6-2.4,1.4-3.9c1.4-2.699,5.2-4,11.6-4h32.1c8.7,0,17.2,3.201,25.4,9.5c4,3.101,7.2,7.201,9.8,12.5
	c2.6,5.201,3.9,11.101,3.9,17.5c0,11.201-3.7,20.4-11.1,27.601C102.35,545.717,105.75,553.416,110.35,563.717z M53.35,525.916h19
	c2.9,0,5.7-1.1,8.6-3.299c2.9-2.201,4.3-5.4,4.3-9.801s-1.4-7.6-4.3-9.9c-2.9-2.199-5.8-3.299-8.9-3.299h-18.7V525.916
	L53.35,525.916z"/>
<path d="M170.25,472.017c14.6,0,27.4,5.3,38.1,15.899c10.8,10.601,16.2,23.701,16.2,39.4c0,15.7-5.101,29-15.4,40.101
	c-10.3,11-23,16.5-38,16.5s-27.8-5.4-38.4-16.301c-10.5-10.899-15.8-23.8-15.8-38.899c0-8.2,1.5-15.9,4.5-23.1
	c3-7.201,6.9-13.201,11.9-18c4.9-4.801,10.6-8.701,17.1-11.4C156.85,473.416,163.449,472.017,170.25,472.017z M143.25,528.017
	c0,8.8,2.8,16,8.5,21.399c5.7,5.5,12,8.201,19.1,8.201c7,0,13.4-2.701,19-8c5.6-5.301,8.5-12.5,8.5-21.5s-2.8-16.201-8.5-21.701
	c-5.7-5.399-12-8.199-19.1-8.199c-7,0-13.4,2.699-19,8.199C146.049,512.017,143.25,519.217,143.25,528.017z"/>
<path d="M306.149,473.416c2.3,0,4,0.101,5.1,0.201c1.101,0.1,2.4,0.6,3.9,1.399c1.4,0.8,2.4,2.101,3,4s0.9,4.399,0.9,7.601
	c0,3.199-0.301,5.699-0.9,7.6s-1.6,3.199-3.1,3.9c-1.5,0.699-2.801,1.199-3.9,1.299c-1.1,0.101-2.9,0.201-5.3,0.201h-45.4v15h29.2
	c2.4,0,4.1,0.1,5.3,0.199c1.101,0.1,2.4,0.6,3.9,1.4c2.6,1.5,3.899,5.4,3.899,11.699c0,6.9-1.899,11-5.6,12.301
	c-1.6,0.5-4.1,0.699-7.6,0.699h-29.101v28.001c0,2.399-0.1,4.1-0.2,5.199c-0.1,1.101-0.6,2.4-1.399,3.9c-1.4,2.7-5.2,4-11.601,4
	c-6.899,0-11-1.9-12.199-5.6c-0.601-1.601-0.9-4.101-0.9-7.601v-82.4c0-5,0.9-8.5,2.8-10.299c1.9-1.801,5.4-2.701,10.7-2.701
	H306.149z"/>
<path d="M328.749,486.416c0-2.299,0.101-4,0.2-5.1c0.101-1.1,0.601-2.4,1.4-3.9c1.399-2.699,5.2-4,11.6-4c6.9,0,11,1.801,12.3,5.5
	c0.5,1.701,0.7,4.301,0.7,7.701v82.499c0,2.4-0.1,4.101-0.2,5.2c-0.1,1.101-0.6,2.4-1.399,3.9c-1.4,2.7-5.2,4-11.601,4
	c-6.899,0-11-1.9-12.199-5.601c-0.601-1.6-0.9-4.1-0.9-7.6v-82.601H328.749z"/>
<path d="M393.149,560.217h40.4c3.3,0,5.6,0.4,7.1,1.1c1.5,0.7,2.5,1.9,3,3.5c0.5,1.601,0.7,3.7,0.7,6.3c0,2.601-0.2,4.7-0.7,6.301
	c-0.5,1.6-1.3,2.699-2.5,3.3c-1.9,1-4.5,1.5-7.7,1.5H380.05c-6.9,0-11-1.9-12.2-5.601c-0.601-1.6-0.9-4.1-0.9-7.6v-82.601
	c0-2.299,0.101-4,0.2-5.1s0.6-2.4,1.4-3.9c1.399-2.699,5.199-4,11.6-4c6.9,0,11,1.801,12.3,5.5c0.5,1.701,0.7,4.301,0.7,7.701
	V560.217z"/>
<path fill="#FFBC00" d="M480.449,477.117c2.601-2.601,5.4-3.9,8.4-3.9s5.399,0.199,7,0.699c1.7,0.5,3,1.101,3.899,1.701
	c0.9,0.6,1.601,1.699,2.101,3.199c0.5,1.7,0.7,4.301,0.7,7.9v82.7c0,2.3-0.101,4-0.2,5.1c-0.101,1.1-0.601,2.4-1.4,3.9
	c-1.399,2.699-5.2,4-11.6,4c-6.101,0-9.9-1.301-11.4-3.9c-0.8-1.5-1.3-2.8-1.399-4.1c-0.101-1.2-0.2-3-0.2-5.4v-53l-1.9,1.8
	c-4.1,3.1-7.5,4.6-10.399,4.6c-2.9,0-5.9-1.699-9-5.199c-3.101-3.5-4.7-6.5-4.7-9.2s1.8-5.601,5.3-8.8l24.3-22L480.449,477.117z"/>
<path fill="none" stroke="#FCFCFC" stroke-width="3" stroke-linecap="round" stroke-linejoin="round" stroke-miterlimit="10" d="
	M11.149,517.617c0,0,0.1,18-25.8,27.199"/>
<path fill="none" stroke="#FCFCFC" stroke-width="3" stroke-linecap="round" stroke-linejoin="round" stroke-miterlimit="10" d="
	M220.35,531.217c0,0-0.601,32.3-34.1,42.899"/>
<line fill="none" stroke="#FFFFFF" stroke-width="3" stroke-linecap="round" stroke-linejoin="round" stroke-miterlimit="10" x1="403.249" y1="565.616" x2="431.149" y2="565.616"/>
<g>
	<path d="M791.4,300.4c0,10.1-2.7,18.7-8.101,25.7c-5.7,7.4-12.899,11.101-21.8,11.101h-26.6V354.6c0,5-1.4,8.801-4.301,11.4
		c-2.8,2.8-6.399,4.1-10.6,4.1s-7.6-1.399-10.1-4.1c-2.8-2.8-4.101-6.5-4.101-11.4v-70.7c0-6,1.801-10.8,5.5-14.5
		c3.4-3.4,7.801-5.2,13-5.2h38.5c8.601,0,15.601,3.6,21,10.8C788.9,281.7,791.4,290.1,791.4,300.4z M762.4,300.4
		c0-3.8-1.601-5.8-4.9-5.8h-21.9c-0.3,0.3-0.5,0.7-0.6,1.2V307h23.2C760.9,307,762.4,304.8,762.4,300.4z"/>
	<path d="M884.5,352.6c0,5.2-1.5,9.4-4.5,12.7c-3,3.101-6.8,4.7-11.3,4.7c-4.3,0-8.101-2.6-11.101-7.8l-17-29.101H828v21.4
		c0,4.7-1.4,8.5-4.3,11.2c-2.8,2.899-6.3,4.3-10.3,4.3c-4.301,0-7.7-1.4-10.301-4.1c-2.8-2.801-4.1-6.5-4.1-11.4v-70.7
		c0-6.1,1.8-11,5.3-14.6c3.3-3.3,7.7-5,13.2-5h38.6c8.5,0,15.5,3.4,20.801,10.2c5,6.4,7.5,14.6,7.5,24.6
		c0,5.4-1.101,10.8-3.301,16.1c-2.3,6-5.5,10.101-9.399,12.4l10.1,16.7C883.6,347,884.5,349.9,884.5,352.6z M855.6,299
		c0-3.1-1.399-4.7-4.3-4.7h-23.1c-0.2,0-0.3,0.1-0.3,0.4v8.3H851.3C854.2,303,855.6,301.7,855.6,299z"/>
	<path d="M981.8,315.7c0,16.2-4,29.2-11.899,39C961.7,364.9,950.6,370,936.6,370c-13.899,0-24.899-5.1-33.199-15.2
		c-8.4-10-12.5-23.1-12.5-39.1s4.1-29,12.3-39c8.2-9.9,19.3-14.9,33.2-14.9c13.6,0.1,24.6,5.1,33,15.3
		C977.7,287,981.8,299.9,981.8,315.7z M952.5,316.5c0-6.7-1.2-12.2-3.6-16.7c-2.801-5-7-7.5-12.4-7.5s-9.6,2.5-12.5,7.4
		c-2.5,4.3-3.8,9.899-3.8,16.8c0,6.8,1.3,12.2,3.899,16.2c2.801,4.399,7,6.6,12.4,6.6C947.2,339.3,952.5,331.7,952.5,316.5z"/>
	<path d="M1072.5,279.1c0,5-1.3,8.8-3.8,11.4c-2.5,2.7-5.8,4-10,4H1020.1c-1.199,0-1.8,0.5-1.8,1.5v10h35.101c3.8,0,6.8,1.4,9.3,4.1
		c2.6,2.9,3.899,6.4,3.899,10.801c0,4.8-1.199,8.6-3.6,11.199c-2.4,2.601-5.7,3.801-9.9,3.801H1018.4V352c0,5.1-1.301,9.3-4,12.7
		c-2.601,3.399-6.101,5.2-10.601,5.2c-4.7,0-8.3-1.601-10.8-4.9c-2.3-3.2-3.5-7.6-3.5-13v-68.8c0-12.7,5.8-19,17.5-19h52
		c4.1,0,7.4,1.4,9.9,4.1C1071.3,270.9,1072.5,274.5,1072.5,279.1z"/>
	<path d="M1112.4,353.9c0,4.6-1.5,8.5-4.4,11.699c-2.8,3.101-6.3,4.7-10.3,4.7c-3.9,0-7.4-1.6-10.3-4.7
		c-2.801-3.199-4.301-7.1-4.301-11.699V278.8c0-4.6,1.5-8.5,4.5-11.7c2.9-3.1,6.4-4.7,10.4-4.7c3.9,0,7.3,1.6,10.1,4.9
		c2.801,3.1,4.101,7,4.101,11.5V353.9H1112.4z"/>
	<path d="M1204.3,352.8c0,4.3-0.899,7.9-2.8,10.601c-1.9,3.1-4.8,4.699-8.6,4.699h-48.7c-13.3,0-19.9-7.199-19.9-21.5v-69.7
		c0-4.7,1.5-8.4,4.5-10.9c2.7-2.3,6-3.4,10-3.4s7.4,1.1,10.101,3.2c3,2.7,4.5,6.3,4.5,10.9v57.2c0,1,0.1,1.699,0.3,2.199
		c0.3,0.9,1.2,1.301,2.6,1.301h36.3c3.801,0,6.7,1.5,8.801,4.6C1203.4,344.8,1204.3,348.4,1204.3,352.8z"/>
	<path d="M1275.4,353.6c0,4.601-1.301,8.5-3.9,11.7c-2.5,3.2-5.8,4.9-9.8,4.9c-4.101,0-7.601-1.5-10.4-4.601
		c-2.8-3.1-4.1-7.1-4.1-11.8V304.4c-1.101,0.199-2.2,0.3-3.3,0.3c-4.2,0-7.5-1.4-9.9-4.3c-2.3-3-3.5-6.8-3.5-11.5
		c0-7.5,2.7-12.8,8-15.9l13.5-8c3.4-2,6.6-3,9.6-3c9.101,0,13.7,5.7,13.7,17.1v74.5H1275.4z"/>
</g>
<g id="圖層_2">
</g>
<g>
	<rect x="123.105" y="322.836" fill="#F72332" width="330.5" height="69.1"/>
	<g>
		<path fill="#FFFFFF" d="M220.006,337.636c2.6,0.899,3.8,2.1,3.8,3.7c0,0.5-0.2,1.399-0.7,2.8l-11,31.8c-0.1,0.3-0.2,0.6-0.4,1
			c-0.199,0.4-0.699,0.9-1.5,1.5c-0.8,0.6-1.8,0.9-2.899,0.9c-1.101,0-2.101-0.301-2.9-0.9s-1.399-1.3-1.6-1.9l-6.7-19.8
			c-4.2,12.5-6.4,18.9-6.5,19.101c-0.1,0.199-0.2,0.6-0.5,1c-0.3,0.399-0.6,0.8-0.9,1.1c-0.899,0.9-1.899,1.3-3.199,1.3
			c-1.2,0-2.2-0.3-3-0.899c-0.801-0.601-1.301-1.101-1.601-1.7l-0.399-0.9l-11.101-31.8c-0.399-1.3-0.6-2.2-0.6-2.8
			c0-1.5,1.3-2.7,3.8-3.601c1.1-0.399,2.1-0.6,3-0.6s1.6,0.3,2.1,0.9c0.5,0.6,0.9,1.5,1.301,2.8l6.3,19.1l6.2-18.899
			c0.5-1.601,1.5-2.7,2.899-3.301c0.601-0.3,1.4-0.399,2.4-0.399s1.899,0.3,2.7,0.899c0.8,0.601,1.399,1.301,1.6,1.9l6.6,19.9
			l6.301-19.301c0.3-0.899,0.6-1.5,0.699-1.899c0.2-0.4,0.5-0.8,1.101-1.2c0.5-0.4,1.2-0.6,1.899-0.6
			C218.006,337.035,218.905,337.235,220.006,337.636z"/>
		<path fill="#FFFFFF" d="M248.605,369.235h17.7c0.899,0,1.5,0,2,0.101c0.399,0.1,0.899,0.199,1.5,0.5c1,0.5,1.5,2,1.5,4.5
			c0,2.699-0.7,4.199-2.101,4.699c-0.699,0.2-1.6,0.301-3,0.301h-22.699c-2.7,0-4.2-0.7-4.7-2.2c-0.2-0.601-0.3-1.601-0.3-2.9
			v-31.899c0-1.9,0.399-3.301,1.1-4c0.7-0.7,2.1-1.101,4.1-1.101h22.601c0.899,0,1.5,0,2,0.101c0.399,0.1,0.899,0.199,1.5,0.5
			c1,0.5,1.5,2,1.5,4.5c0,2.699-0.7,4.199-2.101,4.699c-0.699,0.2-1.6,0.301-3,0.301h-17.6v5.8h11.3c0.9,0,1.5,0,2,0.1
			c0.4,0.101,0.9,0.2,1.5,0.5c1,0.5,1.5,2,1.5,4.5c0,2.7-0.7,4.2-2.2,4.7c-0.6,0.2-1.6,0.3-3,0.3h-11.199v6H248.605z"/>
		<path fill="#FFFFFF" d="M286.506,342.436c0-0.9,0-1.5,0.1-2c0.101-0.5,0.2-0.9,0.5-1.5c0.5-1,2-1.5,4.5-1.5c2.7,0,4.3,0.7,4.8,2.1
			c0.2,0.7,0.301,1.601,0.301,3v31.9c0,0.9,0,1.6-0.101,2c-0.1,0.4-0.2,0.9-0.5,1.5c-0.5,1-2,1.5-4.5,1.5c-2.7,0-4.2-0.7-4.7-2.2
			c-0.199-0.6-0.3-1.6-0.3-2.899v-31.9H286.506z"/>
		<path fill="#FFFFFF" d="M365.806,339.136c0.4-0.7,0.9-1.101,1.6-1.3c0.7-0.2,1.601-0.301,2.7-0.301c1.101,0,2,0.101,2.601,0.301
			c0.6,0.199,1.199,0.399,1.5,0.699c0.3,0.301,0.6,0.7,0.699,1.2c0.2,0.601,0.301,1.601,0.301,2.9v31.8c0,0.9,0,1.6-0.101,2
			c-0.1,0.4-0.2,0.9-0.5,1.5c-0.5,1-2,1.5-4.5,1.5c-1.5,0-2.5-0.1-3.1-0.3c-0.601-0.2-1.101-0.601-1.4-1.101
			c-8.6-11.5-14.3-19-17-22.5v18.9c0,0.9,0,1.6-0.1,2c-0.101,0.4-0.2,0.9-0.5,1.5c-0.5,1-2,1.5-4.5,1.5c-2.4,0-3.8-0.5-4.4-1.5
			c-0.3-0.6-0.5-1.1-0.5-1.5c-0.1-0.5-0.1-1.1-0.1-2v-32c0-1.5,0.2-2.5,0.5-3.2c0.399-0.7,0.899-1.1,1.6-1.3s1.7-0.3,2.8-0.3
			c1.101,0,2.101,0.1,2.7,0.3c0.7,0.2,1.101,0.4,1.4,0.7c0.2,0.1,0.6,0.6,1.3,1.5c8.1,11,13.5,18.2,16.2,21.7v-19.4
			C365.206,340.836,365.405,339.836,365.806,339.136z"/>
		<path fill="#FFFFFF" d="M391.405,342.436c0-0.9,0-1.5,0.101-2c0.1-0.5,0.2-0.9,0.5-1.5c0.5-1,2-1.5,4.5-1.5c2.7,0,4.3,0.7,4.8,2.1
			c0.2,0.7,0.3,1.601,0.3,3v31.9c0,0.9,0,1.6-0.1,2c-0.101,0.4-0.2,0.9-0.5,1.5c-0.5,1-2,1.5-4.5,1.5c-2.7,0-4.2-0.7-4.7-2.2
			c-0.2-0.6-0.3-1.6-0.3-2.899v-31.9H391.405z"/>
	</g>
	<circle fill="#FFFFFF" cx="27.105" cy="220.549" r="2.6"/>
	
		<line fill="none" stroke="#FCFCFC" stroke-width="3" stroke-linecap="round" stroke-linejoin="round" stroke-miterlimit="10" x1="27.105" y1="228.449" x2="27.105" y2="254.549"/>
	<path fill="none" stroke="#FCFCFC" stroke-width="3" stroke-linecap="round" stroke-linejoin="round" stroke-miterlimit="10" d="
		M191.105,239.749c0,0,7.9,20.1-10.199,34.6"/>
	
		<line fill="none" stroke="#FFFFFF" stroke-width="3" stroke-linecap="round" stroke-linejoin="round" stroke-miterlimit="10" x1="326.606" y1="222.449" x2="326.606" y2="257.049"/>
	
		<line fill="none" stroke="#FFFFFF" stroke-width="3" stroke-linecap="round" stroke-linejoin="round" stroke-miterlimit="10" x1="423.506" y1="225.649" x2="423.506" y2="260.249"/>
	<path fill="none" stroke="#FFFFFF" stroke-width="3" stroke-linecap="round" stroke-linejoin="round" stroke-miterlimit="10" d="
		M566.106,219.949c0,0,5.899-6.601,10.6-6.101"/>
	<path fill="#282020" d="M68.802,209.488c8.446,0,15.611,1.281,21.497,3.844c5.884,2.563,10.344,6.313,13.382,11.247
		c3.037,4.936,4.556,10.962,4.556,18.08s-1.519,13.146-4.556,18.081c-3.038,4.936-7.498,8.684-13.382,11.246
		c-5.886,2.563-13.051,3.844-21.497,3.844H52.145v27.619H18.974v-93.961H68.802z M63.392,252.34c3.606,0,6.453-0.782,8.542-2.349
		c2.087-1.566,3.132-4.009,3.132-7.332c0-3.321-1.045-5.766-3.132-7.332c-2.089-1.565-4.936-2.349-8.542-2.349H52.145v19.361H63.392
		z"/>
	<path fill="#282020" d="M170.449,209.488c12.243,0,21.64,2.729,28.188,8.186c6.549,5.459,9.823,12.695,9.823,21.711
		c0,10.347-3.203,18.13-9.61,23.348c-6.406,5.222-15.73,7.83-27.975,7.83l-3.274,1.709h-15.66v31.178h-32.459v-93.961H170.449z
		 M164.755,250.489c3.51,0,6.144-0.641,7.901-1.922c1.755-1.281,2.634-3.534,2.634-6.763c0-3.132-0.879-5.36-2.634-6.69
		c-1.758-1.328-4.392-1.993-7.901-1.993h-12.813v17.368H164.755z M184.401,257.466l29.327,45.983H177.71l-21.924-41.144
		L184.401,257.466z"/>
	<path fill="#282020" d="M263.698,208.064c9.965,0,18.508,1.899,25.625,5.694c7.119,3.798,12.576,9.303,16.373,16.515
		c3.795,7.214,5.693,15.945,5.693,26.195s-1.898,18.983-5.693,26.195c-3.797,7.214-9.254,12.72-16.373,16.515
		c-7.117,3.797-15.66,5.694-25.625,5.694c-9.873,0-18.39-1.897-25.555-5.694c-7.167-3.795-12.671-9.301-16.515-16.515
		c-3.844-7.212-5.766-15.945-5.766-26.195s1.922-18.981,5.766-26.195c3.844-7.212,9.348-12.717,16.515-16.515
		C245.309,209.964,253.825,208.064,263.698,208.064z M263.698,232.979c-3.229,0-5.862,0.832-7.901,2.491
		c-2.042,1.662-3.56,4.2-4.556,7.616c-0.997,3.417-1.495,7.88-1.495,13.383c0,5.41,0.498,9.848,1.495,13.312
		c0.996,3.466,2.514,6.028,4.556,7.688c2.039,1.661,4.673,2.491,7.901,2.491c3.225,0,5.859-0.83,7.9-2.491
		c2.041-1.659,3.535-4.222,4.484-7.688c0.949-3.464,1.424-7.901,1.424-13.312c0-5.503-0.475-9.966-1.424-13.383
		c-0.949-3.416-2.443-5.954-4.484-7.616C269.558,233.811,266.923,232.979,263.698,232.979z"/>
	<path fill="#282020" d="M400.509,233.833h-44.703v13.098h36.161v24.344h-36.161v32.175h-33.171v-93.961h77.874V233.833z"/>
	<path fill="#282020" d="M443.218,209.488v93.961h-33.171v-93.961H443.218z"/>
	<path fill="#282020" d="M490.624,279.104h42.567v24.345h-75.738v-93.961h33.171V279.104z"/>
	<path fill="#FFA300" d="M549.279,303.449v-44.133c0-3.132,0-6.265,0-9.396s0-6.264,0-9.396c-3.039,2.658-6.313,4.961-9.823,6.905
		c-3.513,1.946-7.214,3.203-11.104,3.772l-1.851-26.622c2.94-0.285,5.884-0.926,8.826-1.922c2.94-0.997,5.717-2.207,8.328-3.631
		c2.609-1.423,4.935-2.94,6.977-4.556c2.039-1.612,3.581-3.274,4.626-4.982h25.769v93.961H549.279z"/>
</g>
</svg>
