<?xml version="1.0" encoding="utf-8"?>
<!-- Generator: Adobe Illustrator 16.0.0, SVG Export Plug-In . SVG Version: 6.00 Build 0)  -->
<!DOCTYPE svg PUBLIC "-//W3C//DTD SVG 1.1//EN" "http://www.w3.org/Graphics/SVG/1.1/DTD/svg11.dtd">
<svg version="1.1" id="圖層_1" xmlns="http://www.w3.org/2000/svg" xmlns:xlink="http://www.w3.org/1999/xlink" x="0px" y="0px"
	 width="600px" height="220px" viewBox="0 190 600 220" enable-background="new 0 190 600 220" xml:space="preserve">
<path fill="#3A2C25" d="M23.953-24.283c0,7.303-1.168,13.145-3.505,17.234c-2.337,4.382-6.134,8.179-11.1,11.393L26.29,51.958
	h-40.019L-24.83,13.107h-2.921v38.851H-64.85V-60.505h47.907c14.021,0,24.245,2.921,30.964,8.763
	C20.447-45.899,23.953-36.552,23.953-24.283z M-18.111-11.138c1.168-1.46,1.752-4.382,1.752-8.471c0-4.09-0.584-7.011-1.752-8.472
	c-1.168-1.46-3.213-2.337-5.55-2.337h-4.674v21.909h4.674C-21.325-8.801-19.28-9.677-18.111-11.138z"/>
<path fill="#3A2C25" d="M108.666,51.958h-71.86V-60.505h74.197l-2.629,29.795H75.657v13.729h28.919V9.018H75.657V24.5h35.346
	L108.666,51.958z"/>
<path fill="#3A2C25" d="M114.8-24.283c0-11.977,3.505-21.324,10.809-27.751c7.303-6.719,17.234-9.932,30.087-9.932
	s25.998,1.168,39.728,3.505l-4.09,31.84c-15.19-2.921-25.122-4.674-29.795-4.674s-7.011,1.46-7.011,4.381
	c0,1.168,0.292,1.753,1.168,2.337c0.584,0.292,1.168,0.876,1.752,0.876c0.584,0,1.168,0.584,2.045,0.876s1.753,0.584,2.629,0.876
	c0.876,0.292,2.921,1.168,6.427,2.629s6.426,2.629,8.179,3.505c1.752,0.876,4.381,2.337,7.595,4.381
	c9.348,6.135,14.021,15.19,14.021,27.167c0,11.977-3.505,21.324-10.808,27.75c-7.011,6.719-17.235,9.932-30.672,9.932
	s-26.29-1.46-39.143-4.965l2.629-30.672c16.066,4.09,27.167,6.134,32.717,6.134c3.797,0,5.55-1.46,5.55-4.089
	c0-1.168-0.584-2.337-1.46-2.921c-0.876-0.584-2.337-1.46-4.089-2.337c-1.753-0.876-4.382-2.044-7.595-3.213
	c-3.505-1.461-6.134-2.629-8.471-3.505s-4.966-2.629-8.179-4.674C119.766-3.251,114.8-12.306,114.8-24.283z"/>
<path fill="#3A2C25" d="M247.419,12.231c0,6.427,2.922,9.932,8.764,9.932c5.843,0,8.764-3.213,8.764-9.932v-72.736h38.851v74.781
	c0,13.145-4.09,23.077-12.561,29.796c-8.18,6.427-20.156,9.64-35.93,9.64c-31.548,0-47.323-13.146-47.323-39.144v-75.073h39.435
	V12.231z"/>
<path fill="#3A2C25" d="M440.798,51.958h-34.177V-1.498h-0.877l-10.808,53.457h-31.549L352.872-1.498h-0.876v53.457H318.11
	l4.382-112.463h48.199l8.471,50.828h1.753l8.471-50.828h47.615L440.798,51.958z"/>
<path fill="#3A2C25" d="M526.68,51.958h-71.568V-60.505h74.197l-2.629,29.795h-33.009v13.729h28.919V9.018h-28.919V24.5h35.346
	L526.68,51.958z"/>
<g>
	
		<image overflow="visible" enable-background="new    " width="102" height="109" xlink:href="C81F8648.png"  transform="matrix(2.9211 0 0 2.9211 -169.7188 -163.9121)">
	</image>
</g>
<g>
	
		<image overflow="visible" enable-background="new    " width="97" height="103" xlink:href="C81F8649.png"  transform="matrix(2.9211 0 0 2.9211 -67.4785 -163.9121)">
	</image>
</g>
<g>
	
		<image overflow="visible" enable-background="new    " width="100" height="110" xlink:href="C81F864F.png"  transform="matrix(2.9211 0 0 2.9211 11.3926 -166.8359)">
	</image>
</g>
<g>
	
		<image overflow="visible" enable-background="new    " width="104" height="102" xlink:href="C81F864A.png"  transform="matrix(2.9211 0 0 2.9211 104.8691 -163.9121)">
	</image>
</g>
<g>
	
		<image overflow="visible" enable-background="new    " width="112" height="109" xlink:href="C81F864B.png"  transform="matrix(2.9211 0 0 2.9211 215.8711 -163.9141)">
	</image>
</g>
<g>
	
		<image overflow="visible" enable-background="new    " width="97" height="103" xlink:href="C81F8646.png"  transform="matrix(2.9211 0 0 2.9211 350.2441 -163.9121)">
	</image>
</g>
<path fill="#F72332" d="M356.67,125.864H102.531c-7.011,0-12.853-5.843-12.853-12.854V78.542c0-7.012,5.842-12.854,12.853-12.854
	h254.431c7.011,0,12.853,5.842,12.853,12.854v34.469C369.522,120.021,363.973,125.864,356.67,125.864z"/>
<g enable-background="new    ">
	<path fill="#FFFFFF" d="M152.19,112.133h-7.887v-10.808h-5.55v10.808h-7.595V83.215h7.887v11.392h5.55V83.215h7.887v28.918H152.19z
		"/>
	<path fill="#FFFFFF" d="M164.459,112.133h-7.887V83.215h7.887V112.133z"/>
	<path fill="#FFFFFF" d="M186.368,91.978c-2.921-0.876-5.258-1.46-6.426-1.46c-1.461,0-2.337,0.584-2.921,1.752
		c-0.584,1.168-0.876,3.213-0.876,5.842s0.292,4.383,0.584,5.843c0.584,1.169,1.46,1.753,2.921,1.753c0.292,0,1.168,0,2.629-0.293
		v-3.505h-2.045v-5.842h8.763v15.774h-5.258l-0.584-1.169h-0.292c-0.584,0.292-0.876,0.876-1.168,0.876
		c-0.876,0.584-2.045,0.877-3.797,0.877c-6.427,0-9.64-4.967-9.64-14.605c0-4.967,0.876-8.472,2.629-11.101
		c1.752-2.63,4.674-3.798,8.471-3.798c3.213,0,5.842,0.584,8.179,1.461L186.368,91.978z"/>
	<path fill="#FFFFFF" d="M214.411,112.133h-7.887v-10.808h-5.258v10.808h-7.887V83.215h7.887v11.392h5.55V83.215h7.887v28.918
		H214.411z"/>
	<path fill="#FFFFFF" d="M243.622,90.518h-7.595v4.381h6.134v6.135h-6.134v11.393h-7.888v-28.92h16.066L243.622,90.518z"/>
	<path fill="#FFFFFF" d="M254.138,112.133h-7.887V83.215h7.887V112.133z"/>
	<path fill="#FFFFFF" d="M279.552,83.215l-4.966,28.918h-11.977l-5.258-28.918h8.763l2.629,18.986h0.877l2.045-18.986H279.552z"/>
	<path fill="#FFFFFF" d="M297.663,112.133h-15.482V83.215h16.066l-0.584,7.01h-7.596v4.382h6.719v6.134h-6.719v4.674h8.18
		L297.663,112.133z"/>
	<path fill="#FFFFFF" d="M302.337,108.92c0-1.168,0.292-2.045,0.876-2.629s1.753-0.877,3.213-0.877c1.461,0,2.337,0.293,3.214,0.877
		c0.584,0.584,0.876,1.461,0.876,2.922c0,2.336-1.461,3.505-4.09,3.505S302.337,111.257,302.337,108.92z M302.921,103.371
		l-0.584-19.864h7.887l-0.584,19.864H302.921z"/>
</g>
<circle fill="#FFFFFF" cx="27.4" cy="220.1" r="2.6"/>
<path fill="none" stroke="#FFFFFF" stroke-width="3" stroke-linecap="round" stroke-linejoin="round" stroke-miterlimit="10" d="
	M566.4,219.5c0,0,5.899-6.6,10.6-6.1"/>
<rect x="123.105" y="322.836" fill="#10B59D" width="330.5" height="69.1"/>
<g>
	<path fill="#FFFFFF" d="M220.006,337.636c2.6,0.899,3.8,2.1,3.8,3.7c0,0.5-0.2,1.399-0.7,2.8l-11,31.8c-0.1,0.3-0.2,0.6-0.4,1
		c-0.199,0.4-0.699,0.9-1.5,1.5c-0.8,0.6-1.8,0.9-2.899,0.9c-1.101,0-2.101-0.301-2.9-0.9s-1.399-1.3-1.6-1.9l-6.7-19.8
		c-4.2,12.5-6.4,18.9-6.5,19.101c-0.1,0.199-0.2,0.6-0.5,1c-0.3,0.399-0.6,0.8-0.9,1.1c-0.899,0.9-1.899,1.3-3.199,1.3
		c-1.2,0-2.2-0.3-3-0.899c-0.801-0.601-1.301-1.101-1.601-1.7l-0.399-0.9l-11.101-31.8c-0.399-1.3-0.6-2.2-0.6-2.8
		c0-1.5,1.3-2.7,3.8-3.601c1.1-0.399,2.1-0.6,3-0.6s1.6,0.3,2.1,0.9c0.5,0.6,0.9,1.5,1.301,2.8l6.3,19.1l6.2-18.899
		c0.5-1.601,1.5-2.7,2.899-3.301c0.601-0.3,1.4-0.399,2.4-0.399s1.899,0.3,2.7,0.899c0.8,0.601,1.399,1.301,1.6,1.9l6.6,19.9
		l6.301-19.301c0.3-0.899,0.6-1.5,0.699-1.899c0.2-0.4,0.5-0.8,1.101-1.2c0.5-0.4,1.2-0.6,1.899-0.6
		C218.006,337.035,218.905,337.235,220.006,337.636z"/>
	<path fill="#FFFFFF" d="M248.605,369.235h17.7c0.899,0,1.5,0,2,0.101c0.399,0.1,0.899,0.199,1.5,0.5c1,0.5,1.5,2,1.5,4.5
		c0,2.699-0.7,4.199-2.101,4.699c-0.699,0.2-1.6,0.301-3,0.301h-22.699c-2.7,0-4.2-0.7-4.7-2.2c-0.2-0.601-0.3-1.601-0.3-2.9
		v-31.899c0-1.9,0.399-3.301,1.1-4c0.7-0.7,2.1-1.101,4.1-1.101h22.601c0.899,0,1.5,0,2,0.101c0.399,0.1,0.899,0.199,1.5,0.5
		c1,0.5,1.5,2,1.5,4.5c0,2.699-0.7,4.199-2.101,4.699c-0.699,0.2-1.6,0.301-3,0.301h-17.6v5.8h11.3c0.9,0,1.5,0,2,0.1
		c0.4,0.101,0.9,0.2,1.5,0.5c1,0.5,1.5,2,1.5,4.5c0,2.7-0.7,4.2-2.2,4.7c-0.6,0.2-1.6,0.3-3,0.3h-11.199v6H248.605z"/>
	<path fill="#FFFFFF" d="M286.506,342.436c0-0.9,0-1.5,0.1-2c0.101-0.5,0.2-0.9,0.5-1.5c0.5-1,2-1.5,4.5-1.5c2.7,0,4.3,0.7,4.8,2.1
		c0.2,0.7,0.301,1.601,0.301,3v31.9c0,0.9,0,1.6-0.101,2c-0.1,0.4-0.2,0.9-0.5,1.5c-0.5,1-2,1.5-4.5,1.5c-2.7,0-4.2-0.7-4.7-2.2
		c-0.199-0.6-0.3-1.6-0.3-2.899v-31.9H286.506z"/>
	<path fill="#FFFFFF" d="M365.806,339.136c0.4-0.7,0.9-1.101,1.6-1.3c0.7-0.2,1.601-0.301,2.7-0.301c1.101,0,2,0.101,2.601,0.301
		c0.6,0.199,1.199,0.399,1.5,0.699c0.3,0.301,0.6,0.7,0.699,1.2c0.2,0.601,0.301,1.601,0.301,2.9v31.8c0,0.9,0,1.6-0.101,2
		c-0.1,0.4-0.2,0.9-0.5,1.5c-0.5,1-2,1.5-4.5,1.5c-1.5,0-2.5-0.1-3.1-0.3c-0.601-0.2-1.101-0.601-1.4-1.101
		c-8.6-11.5-14.3-19-17-22.5v18.9c0,0.9,0,1.6-0.1,2c-0.101,0.4-0.2,0.9-0.5,1.5c-0.5,1-2,1.5-4.5,1.5c-2.4,0-3.8-0.5-4.4-1.5
		c-0.3-0.6-0.5-1.1-0.5-1.5c-0.1-0.5-0.1-1.1-0.1-2v-32c0-1.5,0.2-2.5,0.5-3.2c0.399-0.7,0.899-1.1,1.6-1.3s1.7-0.3,2.8-0.3
		c1.101,0,2.101,0.1,2.7,0.3c0.7,0.2,1.101,0.4,1.4,0.7c0.2,0.1,0.6,0.6,1.3,1.5c8.1,11,13.5,18.2,16.2,21.7v-19.4
		C365.206,340.836,365.405,339.836,365.806,339.136z"/>
	<path fill="#FFFFFF" d="M391.405,342.436c0-0.9,0-1.5,0.101-2c0.1-0.5,0.2-0.9,0.5-1.5c0.5-1,2-1.5,4.5-1.5c2.7,0,4.3,0.7,4.8,2.1
		c0.2,0.7,0.3,1.601,0.3,3v31.9c0,0.9,0,1.6-0.1,2c-0.101,0.4-0.2,0.9-0.5,1.5c-0.5,1-2,1.5-4.5,1.5c-2.7,0-4.2-0.7-4.7-2.2
		c-0.2-0.6-0.3-1.6-0.3-2.899v-31.9H391.405z"/>
</g>
<line fill="#282020" x1="27.105" y1="228.449" x2="27.105" y2="254.549"/>
<path fill="#282020" d="M191.105,239.749c0,0,7.9,20.1-10.199,34.6"/>
<line fill="#282020" x1="326.606" y1="222.449" x2="326.606" y2="257.049"/>
<line fill="#282020" x1="423.506" y1="225.649" x2="423.506" y2="260.249"/>
<path fill="#282020" d="M68.802,209.488c8.446,0,15.611,1.281,21.497,3.844c5.884,2.563,10.344,6.313,13.382,11.247
	c3.037,4.936,4.556,10.962,4.556,18.08s-1.519,13.146-4.556,18.081c-3.038,4.936-7.498,8.684-13.382,11.246
	c-5.886,2.563-13.051,3.844-21.497,3.844H52.145v27.619H18.974v-93.961H68.802z M63.392,252.34c3.606,0,6.453-0.782,8.542-2.349
	c2.087-1.566,3.132-4.009,3.132-7.332c0-3.321-1.045-5.766-3.132-7.332c-2.089-1.565-4.936-2.349-8.542-2.349H52.145v19.361H63.392z
	"/>
<path fill="#282020" d="M170.449,209.488c12.243,0,21.64,2.729,28.188,8.186c6.549,5.459,9.823,12.695,9.823,21.711
	c0,10.347-3.203,18.13-9.61,23.348c-6.406,5.222-15.73,7.83-27.975,7.83l-3.274,1.709h-15.66v31.178h-32.459v-93.961H170.449z
	 M164.755,250.489c3.51,0,6.144-0.641,7.901-1.922c1.755-1.281,2.634-3.534,2.634-6.763c0-3.132-0.879-5.36-2.634-6.69
	c-1.758-1.328-4.392-1.993-7.901-1.993h-12.813v17.368H164.755z M184.401,257.466l29.327,45.983H177.71l-21.924-41.144
	L184.401,257.466z"/>
<path fill="#282020" d="M263.698,208.064c9.965,0,18.508,1.899,25.625,5.694c7.119,3.798,12.576,9.303,16.373,16.515
	c3.795,7.214,5.693,15.945,5.693,26.195s-1.898,18.983-5.693,26.195c-3.797,7.214-9.254,12.72-16.373,16.515
	c-7.117,3.797-15.66,5.694-25.625,5.694c-9.873,0-18.39-1.897-25.555-5.694c-7.167-3.795-12.671-9.301-16.515-16.515
	c-3.844-7.212-5.766-15.945-5.766-26.195s1.922-18.981,5.766-26.195c3.844-7.212,9.348-12.717,16.515-16.515
	C245.309,209.964,253.825,208.064,263.698,208.064z M263.698,232.979c-3.229,0-5.862,0.832-7.901,2.491
	c-2.042,1.662-3.56,4.2-4.556,7.616c-0.997,3.417-1.495,7.88-1.495,13.383c0,5.41,0.498,9.848,1.495,13.312
	c0.996,3.466,2.514,6.028,4.556,7.688c2.039,1.661,4.673,2.491,7.901,2.491c3.225,0,5.859-0.83,7.9-2.491
	c2.041-1.659,3.535-4.222,4.484-7.688c0.949-3.464,1.424-7.901,1.424-13.312c0-5.503-0.475-9.966-1.424-13.383
	c-0.949-3.416-2.443-5.954-4.484-7.616C269.558,233.811,266.923,232.979,263.698,232.979z"/>
<path fill="#282020" d="M400.509,233.833h-44.703v13.098h36.161v24.344h-36.161v32.175h-33.171v-93.961h77.874V233.833z"/>
<path fill="#282020" d="M443.218,209.488v93.961h-33.171v-93.961H443.218z"/>
<path fill="#282020" d="M490.624,279.104h42.567v24.345h-75.738v-93.961h33.171V279.104z"/>
<path fill="#10B59D" d="M549.279,303.449v-44.133c0-3.132,0-6.265,0-9.396s0-6.264,0-9.396c-3.039,2.658-6.313,4.961-9.823,6.905
	c-3.513,1.946-7.214,3.203-11.104,3.772l-1.851-26.622c2.94-0.285,5.884-0.926,8.826-1.922c2.94-0.997,5.717-2.207,8.328-3.631
	c2.609-1.423,4.935-2.94,6.977-4.556c2.039-1.612,3.581-3.274,4.626-4.982h25.769v93.961H549.279z"/>
<g>
	<rect x="104.71" y="593.85" fill="#F72332" width="330.5" height="69.1"/>
	<g>
		<path fill="#FFFFFF" d="M201.611,608.649c2.6,0.899,3.8,2.1,3.8,3.7c0,0.5-0.2,1.399-0.7,2.8l-11,31.8c-0.1,0.3-0.2,0.6-0.4,1
			c-0.199,0.4-0.699,0.9-1.5,1.5c-0.8,0.6-1.8,0.9-2.899,0.9c-1.101,0-2.101-0.301-2.9-0.9s-1.399-1.3-1.6-1.9l-6.7-19.8
			c-4.2,12.5-6.4,18.9-6.5,19.101c-0.1,0.199-0.2,0.6-0.5,1c-0.3,0.399-0.6,0.8-0.9,1.1c-0.899,0.9-1.899,1.3-3.199,1.3
			c-1.2,0-2.2-0.3-3-0.899c-0.801-0.601-1.301-1.101-1.601-1.7l-0.399-0.9l-11.101-31.8c-0.399-1.3-0.6-2.2-0.6-2.8
			c0-1.5,1.3-2.7,3.8-3.601c1.1-0.399,2.1-0.6,3-0.6s1.6,0.3,2.1,0.9c0.5,0.6,0.9,1.5,1.301,2.8l6.3,19.1l6.2-18.899
			c0.5-1.601,1.5-2.7,2.899-3.301c0.601-0.3,1.4-0.399,2.4-0.399s1.899,0.3,2.7,0.899c0.8,0.601,1.399,1.301,1.6,1.9l6.6,19.9
			l6.301-19.301c0.3-0.899,0.6-1.5,0.699-1.899c0.2-0.4,0.5-0.8,1.101-1.2c0.5-0.4,1.2-0.6,1.899-0.6
			C199.611,608.049,200.51,608.249,201.611,608.649z"/>
		<path fill="#FFFFFF" d="M230.21,640.249h17.7c0.899,0,1.5,0,2,0.101c0.399,0.1,0.899,0.199,1.5,0.5c1,0.5,1.5,2,1.5,4.5
			c0,2.699-0.7,4.199-2.101,4.699c-0.699,0.2-1.6,0.301-3,0.301h-22.699c-2.7,0-4.2-0.7-4.7-2.2c-0.2-0.601-0.3-1.601-0.3-2.9
			V613.35c0-1.9,0.399-3.301,1.1-4c0.7-0.7,2.1-1.101,4.1-1.101h22.601c0.899,0,1.5,0,2,0.101c0.399,0.1,0.899,0.199,1.5,0.5
			c1,0.5,1.5,2,1.5,4.5c0,2.699-0.7,4.199-2.101,4.699c-0.699,0.2-1.6,0.301-3,0.301h-17.6v5.8h11.3c0.9,0,1.5,0,2,0.1
			c0.4,0.101,0.9,0.2,1.5,0.5c1,0.5,1.5,2,1.5,4.5c0,2.7-0.7,4.2-2.2,4.7c-0.6,0.2-1.6,0.3-3,0.3h-11.199v6H230.21z"/>
		<path fill="#FFFFFF" d="M268.111,613.449c0-0.9,0-1.5,0.1-2c0.101-0.5,0.2-0.9,0.5-1.5c0.5-1,2-1.5,4.5-1.5c2.7,0,4.3,0.7,4.8,2.1
			c0.2,0.7,0.301,1.601,0.301,3v31.9c0,0.9,0,1.6-0.101,2c-0.1,0.4-0.2,0.9-0.5,1.5c-0.5,1-2,1.5-4.5,1.5c-2.7,0-4.2-0.7-4.7-2.2
			c-0.199-0.6-0.3-1.6-0.3-2.899v-31.9H268.111z"/>
		<path fill="#FFFFFF" d="M347.41,610.149c0.4-0.7,0.9-1.101,1.6-1.3c0.701-0.2,1.602-0.301,2.701-0.301s2,0.101,2.6,0.301
			c0.6,0.199,1.199,0.399,1.5,0.699c0.301,0.301,0.6,0.7,0.699,1.2c0.201,0.601,0.301,1.601,0.301,2.9v31.8c0,0.9,0,1.6-0.1,2
			s-0.201,0.9-0.5,1.5c-0.5,1-2,1.5-4.5,1.5c-1.5,0-2.5-0.1-3.1-0.3c-0.602-0.2-1.102-0.601-1.4-1.101c-8.6-11.5-14.301-19-17-22.5
			v18.9c0,0.9,0,1.6-0.1,2c-0.102,0.4-0.201,0.9-0.5,1.5c-0.5,1-2,1.5-4.5,1.5c-2.4,0-3.801-0.5-4.4-1.5c-0.301-0.6-0.5-1.1-0.5-1.5
			c-0.1-0.5-0.1-1.1-0.1-2v-32c0-1.5,0.199-2.5,0.5-3.2c0.398-0.7,0.898-1.1,1.6-1.3c0.699-0.2,1.699-0.3,2.799-0.3
			c1.102,0,2.102,0.1,2.701,0.3c0.699,0.2,1.1,0.4,1.4,0.7c0.199,0.1,0.6,0.6,1.299,1.5c8.1,11,13.5,18.2,16.201,21.7v-19.4
			C346.811,611.85,347.01,610.85,347.41,610.149z"/>
		<path fill="#FFFFFF" d="M373.01,613.449c0-0.9,0-1.5,0.102-2c0.1-0.5,0.199-0.9,0.5-1.5c0.5-1,2-1.5,4.5-1.5
			c2.699,0,4.299,0.7,4.799,2.1c0.201,0.7,0.301,1.601,0.301,3v31.9c0,0.9,0,1.6-0.1,2c-0.102,0.4-0.201,0.9-0.5,1.5
			c-0.5,1-2,1.5-4.5,1.5c-2.701,0-4.201-0.7-4.701-2.2c-0.199-0.6-0.299-1.6-0.299-2.899v-31.9H373.01z"/>
	</g>
	<circle fill="#FFFFFF" cx="8.71" cy="491.563" r="2.6"/>
	
		<line fill="none" stroke="#FCFCFC" stroke-width="3" stroke-linecap="round" stroke-linejoin="round" stroke-miterlimit="10" x1="8.71" y1="499.463" x2="8.71" y2="525.563"/>
	<path fill="none" stroke="#FCFCFC" stroke-width="3" stroke-linecap="round" stroke-linejoin="round" stroke-miterlimit="10" d="
		M172.71,510.763c0,0,7.9,20.1-10.199,34.6"/>
	
		<line fill="none" stroke="#FFFFFF" stroke-width="3" stroke-linecap="round" stroke-linejoin="round" stroke-miterlimit="10" x1="308.211" y1="493.463" x2="308.211" y2="528.063"/>
	
		<line fill="none" stroke="#FFFFFF" stroke-width="3" stroke-linecap="round" stroke-linejoin="round" stroke-miterlimit="10" x1="405.111" y1="496.663" x2="405.111" y2="531.263"/>
	<path fill="none" stroke="#FFFFFF" stroke-width="3" stroke-linecap="round" stroke-linejoin="round" stroke-miterlimit="10" d="
		M547.711,490.963c0,0,5.9-6.601,10.6-6.101"/>
	<path fill="#282020" d="M50.407,480.502c8.446,0,15.611,1.281,21.497,3.844c5.884,2.563,10.344,6.313,13.382,11.247
		c3.037,4.936,4.556,10.962,4.556,18.08s-1.519,13.146-4.556,18.081c-3.038,4.936-7.498,8.684-13.382,11.246
		c-5.886,2.563-13.051,3.844-21.497,3.844H33.75v27.619H0.579v-93.961H50.407z M44.997,523.354c3.606,0,6.453-0.782,8.542-2.349
		c2.087-1.566,3.132-4.009,3.132-7.332c0-3.321-1.045-5.766-3.132-7.332c-2.089-1.565-4.936-2.349-8.542-2.349H33.75v19.361H44.997z
		"/>
	<path fill="#282020" d="M152.054,480.502c12.243,0,21.64,2.729,28.188,8.186c6.549,5.459,9.823,12.695,9.823,21.711
		c0,10.347-3.203,18.13-9.61,23.348c-6.406,5.222-15.73,7.83-27.975,7.83l-3.274,1.709h-15.66v31.178h-32.459v-93.961H152.054z
		 M146.36,521.503c3.51,0,6.144-0.641,7.901-1.922c1.755-1.281,2.634-3.534,2.634-6.763c0-3.132-0.879-5.36-2.634-6.69
		c-1.758-1.328-4.392-1.993-7.901-1.993h-12.813v17.368H146.36z M166.006,528.479l29.327,45.983h-36.019l-21.924-41.144
		L166.006,528.479z"/>
	<path fill="#282020" d="M245.303,479.078c9.965,0,18.508,1.899,25.625,5.694c7.119,3.798,12.576,9.303,16.373,16.515
		c3.795,7.214,5.693,15.945,5.693,26.195s-1.898,18.983-5.693,26.195c-3.797,7.214-9.254,12.72-16.373,16.515
		c-7.117,3.797-15.66,5.694-25.625,5.694c-9.873,0-18.39-1.897-25.555-5.694c-7.167-3.795-12.671-9.301-16.515-16.515
		c-3.844-7.212-5.766-15.945-5.766-26.195s1.922-18.981,5.766-26.195c3.844-7.212,9.348-12.717,16.515-16.515
		C226.914,480.978,235.43,479.078,245.303,479.078z M245.303,503.992c-3.229,0-5.862,0.832-7.901,2.491
		c-2.042,1.662-3.56,4.2-4.556,7.616c-0.997,3.417-1.495,7.88-1.495,13.383c0,5.41,0.498,9.848,1.495,13.312
		c0.996,3.466,2.514,6.028,4.556,7.688c2.039,1.661,4.673,2.491,7.901,2.491c3.225,0,5.859-0.83,7.9-2.491
		c2.041-1.659,3.535-4.222,4.484-7.688c0.949-3.464,1.424-7.901,1.424-13.312c0-5.503-0.475-9.966-1.424-13.383
		c-0.949-3.416-2.443-5.954-4.484-7.616C251.163,504.824,248.528,503.992,245.303,503.992z"/>
	<path fill="#282020" d="M382.113,504.847H337.41v13.098h36.162v24.344H337.41v32.175h-33.17v-93.961h77.873V504.847z"/>
	<path fill="#282020" d="M424.822,480.502v93.961h-33.17v-93.961H424.822z"/>
	<path fill="#282020" d="M472.229,550.118h42.568v24.345h-75.738v-93.961h33.17V550.118z"/>
	<path fill="#FFA300" d="M530.885,574.463V530.33c0-3.132,0-6.265,0-9.396s0-6.264,0-9.396c-3.039,2.658-6.314,4.961-9.824,6.905
		c-3.512,1.946-7.213,3.203-11.104,3.772l-1.852-26.622c2.941-0.285,5.885-0.926,8.826-1.922c2.941-0.997,5.717-2.207,8.328-3.631
		c2.609-1.423,4.936-2.94,6.977-4.556c2.039-1.612,3.582-3.274,4.627-4.982h25.768v93.961H530.885z"/>
</g>
<g>
	<path fill="#FFA300" d="M328.064,222.7c-22.316,3.175-24.89,5.748-28.064,28.064c-3.175-22.316-5.748-24.89-28.064-28.064
		c22.316-3.174,24.89-5.748,28.064-28.064C303.175,216.952,305.748,219.526,328.064,222.7z"/>
</g>
<g>
	<path fill="#FFA300" d="M91.669,329.957c-22.316,3.175-24.89,5.748-28.064,28.064c-3.174-22.316-5.748-24.89-28.064-28.064
		c22.316-3.174,24.89-5.748,28.064-28.064C66.78,324.209,69.353,326.783,91.669,329.957z"/>
</g>
<g>
	<path fill="#FFA300" d="M114.23,369.092c-15.291,2.176-17.054,3.938-19.229,19.229c-2.175-15.291-3.938-17.054-19.229-19.229
		c15.291-2.175,17.054-3.938,19.229-19.229C97.176,365.153,98.939,366.917,114.23,369.092z"/>
</g>
<g>
	<path fill="#FFA300" d="M557.046,346.863c-15.342,2.183-17.11,3.951-19.293,19.293c-2.183-15.342-3.951-17.11-19.293-19.293
		c15.342-2.182,17.11-3.951,19.293-19.293C539.936,342.912,541.704,344.682,557.046,346.863z"/>
</g>
</svg>
